<svg width="119" height="25" viewBox="0 0 119 25" fill="none" xmlns="http://www.w3.org/2000/svg">
<path d="M6.04688 7.09375V24H0.765625V7.09375H6.04688ZM0.453125 2.73438C0.453125 1.98438 0.723958 1.36979 1.26562 0.890625C1.80729 0.411458 2.51042 0.171875 3.375 0.171875C4.23958 0.171875 4.94271 0.411458 5.48438 0.890625C6.02604 1.36979 6.29688 1.98438 6.29688 2.73438C6.29688 3.48438 6.02604 4.09896 5.48438 4.57812C4.94271 5.05729 4.23958 5.29688 3.375 5.29688C2.51042 5.29688 1.80729 5.05729 1.26562 4.57812C0.723958 4.09896 0.453125 3.48438 0.453125 2.73438ZM9.34375 0H14.6094V19.8438L14.0625 24H9.34375V0ZM24.9844 15.3594V15.6875C24.9844 16.9688 24.8542 18.1354 24.5938 19.1875C24.3333 20.2396 23.9323 21.151 23.3906 21.9219C22.849 22.6823 22.1667 23.2708 21.3438 23.6875C20.5208 24.1042 19.5469 24.3125 18.4219 24.3125C17.401 24.3125 16.526 24.0938 15.7969 23.6562C15.0677 23.2083 14.4583 22.5938 13.9688 21.8125C13.4792 21.0208 13.0833 20.1094 12.7812 19.0781C12.4792 18.0365 12.2396 16.9219 12.0625 15.7344V15.3438C12.2396 14.1667 12.4792 13.0625 12.7812 12.0312C13.0833 10.9896 13.4792 10.0781 13.9688 9.29688C14.4583 8.50521 15.0625 7.89062 15.7812 7.45312C16.5104 7.00521 17.3802 6.78125 18.3906 6.78125C19.526 6.78125 20.5052 6.99479 21.3281 7.42188C22.1615 7.84896 22.849 8.44792 23.3906 9.21875C23.9323 9.98958 24.3333 10.8958 24.5938 11.9375C24.8542 12.9792 24.9844 14.1198 24.9844 15.3594ZM19.7188 15.6875V15.3594C19.7188 14.7448 19.6823 14.1667 19.6094 13.625C19.5365 13.0833 19.4062 12.6042 19.2188 12.1875C19.0312 11.7708 18.7656 11.4427 18.4219 11.2031C18.0781 10.9635 17.6302 10.8438 17.0781 10.8438C16.5156 10.8438 16.0417 10.9375 15.6562 11.125C15.2812 11.3125 14.9792 11.5833 14.75 11.9375C14.5312 12.2812 14.375 12.7083 14.2812 13.2188C14.1875 13.7188 14.1458 14.2865 14.1562 14.9219V16.1562C14.1354 17.0208 14.2135 17.7604 14.3906 18.375C14.5677 18.9896 14.875 19.4583 15.3125 19.7812C15.75 20.1042 16.349 20.2656 17.1094 20.2656C17.6719 20.2656 18.125 20.1562 18.4688 19.9375C18.8229 19.7188 19.0885 19.4062 19.2656 19C19.4427 18.5938 19.5625 18.1094 19.625 17.5469C19.6875 16.9844 19.7188 16.3646 19.7188 15.6875ZM32.8906 7.09375V24H27.6094V7.09375H32.8906ZM27.2969 2.73438C27.2969 1.98438 27.5677 1.36979 28.1094 0.890625C28.651 0.411458 29.3542 0.171875 30.2188 0.171875C31.0833 0.171875 31.7865 0.411458 32.3281 0.890625C32.8698 1.36979 33.1406 1.98438 33.1406 2.73438C33.1406 3.48438 32.8698 4.09896 32.3281 4.57812C31.7865 5.05729 31.0833 5.29688 30.2188 5.29688C29.3542 5.29688 28.651 5.05729 28.1094 4.57812C27.5677 4.09896 27.2969 3.48438 27.2969 2.73438ZM51 10.7031V24H45.7344V7.09375H50.6719L51 10.7031ZM50.375 14.9688L49.1406 15C49.1406 13.7083 49.2969 12.5573 49.6094 11.5469C49.9219 10.526 50.3646 9.66146 50.9375 8.95312C51.5104 8.24479 52.1927 7.70833 52.9844 7.34375C53.7865 6.96875 54.6771 6.78125 55.6562 6.78125C56.4375 6.78125 57.151 6.89583 57.7969 7.125C58.4531 7.35417 59.0156 7.72396 59.4844 8.23438C59.9635 8.74479 60.3281 9.42188 60.5781 10.2656C60.8385 11.099 60.9688 12.1302 60.9688 13.3594V24H55.6719V13.3438C55.6719 12.6667 55.5781 12.151 55.3906 11.7969C55.2031 11.4323 54.9323 11.1823 54.5781 11.0469C54.224 10.9115 53.7917 10.8438 53.2812 10.8438C52.7396 10.8438 52.2812 10.9479 51.9062 11.1562C51.5312 11.3646 51.2292 11.6562 51 12.0312C50.7812 12.3958 50.6198 12.8281 50.5156 13.3281C50.4219 13.8281 50.375 14.375 50.375 14.9688ZM72.0781 24.3125C70.7031 24.3125 69.474 24.099 68.3906 23.6719C67.3073 23.2344 66.3906 22.6354 65.6406 21.875C64.901 21.1146 64.3333 20.2396 63.9375 19.25C63.5521 18.2604 63.3594 17.2135 63.3594 16.1094V15.5156C63.3594 14.276 63.5312 13.1302 63.875 12.0781C64.2188 11.0156 64.7292 10.0885 65.4062 9.29688C66.0833 8.50521 66.9323 7.89062 67.9531 7.45312C68.974 7.00521 70.1615 6.78125 71.5156 6.78125C72.7135 6.78125 73.7865 6.97396 74.7344 7.35938C75.6823 7.74479 76.4844 8.29688 77.1406 9.01562C77.8073 9.73438 78.3125 10.6042 78.6562 11.625C79.0104 12.6458 79.1875 13.7917 79.1875 15.0625V17.2031H65.375V13.9062H74.0469V13.5C74.0573 12.9375 73.9583 12.4583 73.75 12.0625C73.5521 11.6667 73.2604 11.3646 72.875 11.1562C72.4896 10.9479 72.0208 10.8438 71.4688 10.8438C70.8958 10.8438 70.4219 10.9688 70.0469 11.2188C69.6823 11.4688 69.3958 11.8125 69.1875 12.25C68.9896 12.6771 68.849 13.1719 68.7656 13.7344C68.6823 14.2969 68.6406 14.8906 68.6406 15.5156V16.1094C68.6406 16.7344 68.724 17.3021 68.8906 17.8125C69.0677 18.3229 69.3177 18.7604 69.6406 19.125C69.974 19.4792 70.3698 19.7552 70.8281 19.9531C71.2969 20.151 71.8281 20.25 72.4219 20.25C73.1406 20.25 73.849 20.1146 74.5469 19.8438C75.2448 19.5729 75.8438 19.125 76.3438 18.5L78.7344 21.3438C78.3906 21.8333 77.901 22.3073 77.2656 22.7656C76.6406 23.224 75.8906 23.599 75.0156 23.8906C74.1406 24.1719 73.1615 24.3125 72.0781 24.3125ZM86.4688 18.9688L89.5938 7.09375H92.8906L91.7188 13.0469L88.625 24H85.9844L86.4688 18.9688ZM85.2344 7.09375L87.1719 18.875L87.3906 24H84.1875L80.1875 7.09375H85.2344ZM95.6719 18.625L97.625 7.09375H102.672L98.7031 24H95.5L95.6719 18.625ZM93.2656 7.09375L96.4219 18.9375L96.9062 24H94.2344L91.2031 13.0781L90.0781 7.09375H93.2656ZM113.438 19.25C113.438 18.9583 113.339 18.7083 113.141 18.5C112.953 18.2812 112.62 18.0833 112.141 17.9062C111.661 17.7188 110.99 17.5312 110.125 17.3438C109.302 17.1667 108.526 16.9323 107.797 16.6406C107.078 16.349 106.448 15.9948 105.906 15.5781C105.365 15.1615 104.938 14.6667 104.625 14.0938C104.323 13.5208 104.172 12.8646 104.172 12.125C104.172 11.4062 104.323 10.7292 104.625 10.0938C104.938 9.44792 105.391 8.88021 105.984 8.39062C106.589 7.89062 107.323 7.5 108.188 7.21875C109.052 6.92708 110.036 6.78125 111.141 6.78125C112.661 6.78125 113.974 7.01562 115.078 7.48438C116.182 7.94271 117.031 8.58854 117.625 9.42188C118.229 10.2448 118.531 11.1979 118.531 12.2812H113.266C113.266 11.8542 113.193 11.4896 113.047 11.1875C112.911 10.8854 112.688 10.6562 112.375 10.5C112.062 10.3333 111.646 10.25 111.125 10.25C110.76 10.25 110.427 10.3177 110.125 10.4531C109.833 10.5885 109.599 10.776 109.422 11.0156C109.245 11.2552 109.156 11.5365 109.156 11.8594C109.156 12.0885 109.208 12.2969 109.312 12.4844C109.427 12.6615 109.599 12.8281 109.828 12.9844C110.057 13.1302 110.349 13.2656 110.703 13.3906C111.057 13.5052 111.484 13.6094 111.984 13.7031C113.12 13.9115 114.182 14.2083 115.172 14.5938C116.161 14.9792 116.964 15.526 117.578 16.2344C118.203 16.9427 118.516 17.8958 118.516 19.0938C118.516 19.8438 118.344 20.5365 118 21.1719C117.656 21.7969 117.161 22.349 116.516 22.8281C115.87 23.2969 115.094 23.6615 114.188 23.9219C113.281 24.1823 112.26 24.3125 111.125 24.3125C109.51 24.3125 108.146 24.026 107.031 23.4531C105.917 22.8698 105.073 22.1406 104.5 21.2656C103.938 20.3802 103.656 19.4844 103.656 18.5781H108.562C108.583 19.099 108.708 19.526 108.938 19.8594C109.177 20.1927 109.495 20.4375 109.891 20.5938C110.286 20.75 110.745 20.8281 111.266 20.8281C111.745 20.8281 112.141 20.7604 112.453 20.625C112.776 20.4896 113.021 20.3073 113.188 20.0781C113.354 19.8385 113.438 19.5625 113.438 19.25Z" fill="white"/>
<path d="M36.4844 21.5312C36.4844 20.7812 36.7552 20.1562 37.2969 19.6562C37.8385 19.1458 38.5365 18.8906 39.3906 18.8906C40.2552 18.8906 40.9531 19.1458 41.4844 19.6562C42.026 20.1562 42.2969 20.7812 42.2969 21.5312C42.2969 22.2812 42.026 22.9115 41.4844 23.4219C40.9531 23.9219 40.2552 24.1719 39.3906 24.1719C38.5365 24.1719 37.8385 23.9219 37.2969 23.4219C36.7552 22.9115 36.4844 22.2812 36.4844 21.5312Z" fill="#FD89BA"/>
</svg>
